<svg width="50" height="50" xmlns="http://www.w3.org/2000/svg">
 <g>
  <title>Layer 1</title>
  <path fill="#fff" stroke="#000" d="m33.48799,10.84456c-2.15263,-2.11507 -4.47436,-3.80936 -6.3789,-4.04035c-0.10368,-0.01498 -0.21107,-0.02372 -0.32462,-0.02622l-12.53439,0c-0.19996,0 -0.39745,0.07866 -0.53816,0.22474c-0.13948,0.14234 -0.22218,0.34211 -0.22218,0.54562l0,32.15049c0,0.20227 0.07776,0.39579 0.22218,0.54312c0.14441,0.14483 0.3345,0.22349 0.53816,0.22349l22.66681,0c0.19996,0 0.39128,-0.07741 0.53569,-0.22349c0.14441,-0.14608 0.22464,-0.33961 0.22464,-0.54312l0,-21.39412c-0.04444,-2.48339 -1.96749,-5.19152 -4.18924,-7.46016l0.00001,0zm2.6661,28.08142l-21.14614,0l0,-30.61226l11.77776,0l0,0.0025c0.51347,-0.03121 0.95659,0.48195 1.29602,1.65559c0.30858,1.11746 0.38634,2.57454 0.3851,3.58462c0.00247,0.7404 -0.03333,1.23733 -0.03333,1.23733l-0.06048,0.81406l0.80971,0.00874c0.0037,0 1.87121,0.02247 3.70292,0.44324c1.76012,0.38456 3.13637,1.15117 3.26474,2.01893c0.00494,0.07741 0.00617,0.15482 0.00494,0.22724l0,20.62001l-0.00123,0l-0.00001,0z" id="svg_1"/>
  <path fill="#fff" stroke="#000" d="m57.51415,20.42582c-0.00872,-0.00847 -0.01813,-0.01526 -0.02584,-0.01618c-0.00042,-0.00006 -0.00086,-0.0001 -0.00132,-0.00011l-0.05078,0c-0.00081,0 -0.00161,0.00032 -0.00218,0.0009c-0.00057,0.00057 -0.0009,0.00137 -0.0009,0.00219l0,0.12875c0,0.00081 0.00032,0.00159 0.0009,0.00218c0.00059,0.00058 0.00136,0.0009 0.00218,0.0009l0.09182,0c0.00081,0 0.00159,-0.00031 0.00217,-0.0009c0.00059,-0.00059 0.00091,-0.00136 0.00091,-0.00218l0,-0.08568c-0.00018,-0.00995 -0.00797,-0.02079 -0.01697,-0.02988l0.00001,0.00001zm0.0108,0.11246l-0.08566,0l0,-0.12259l0.04771,0l0,0.00001c0.00208,-0.00013 0.00388,0.00193 0.00525,0.00663c0.00125,0.00448 0.00157,0.01031 0.00156,0.01436c0.00001,0.00297 -0.00014,0.00496 -0.00014,0.00496l-0.00025,0.00326l0.00328,0.00004c0.00002,0 0.00758,0.00009 0.015,0.00178c0.00713,0.00154 0.01271,0.00461 0.01323,0.00809c0.00002,0.00031 0.00003,0.00062 0.00002,0.00091l0,0.08258l-0.00001,0l0.00001,-0.00003z" id="svg_3"/>
  <path fill="#fff" stroke="#000" d="m64.16821,18.0627c-0.00872,-0.00847 -0.01813,-0.01526 -0.02584,-0.01618c-0.00042,-0.00006 -0.00086,-0.0001 -0.00132,-0.00011l-0.05078,0c-0.00081,0 -0.00161,0.00032 -0.00218,0.0009c-0.00057,0.00057 -0.0009,0.00137 -0.0009,0.00219l0,0.12875c0,0.00081 0.00032,0.00159 0.0009,0.00218c0.00059,0.00058 0.00136,0.0009 0.00218,0.0009l0.09182,0c0.00081,0 0.00159,-0.00031 0.00217,-0.0009c0.00059,-0.00059 0.00091,-0.00136 0.00091,-0.00218l0,-0.08568c-0.00018,-0.00995 -0.00797,-0.02079 -0.01697,-0.02988l0.00001,0.00001zm0.0108,0.11246l-0.08566,0l0,-0.12259l0.04771,0l0,0.00001c0.00208,-0.00013 0.00388,0.00193 0.00525,0.00663c0.00125,0.00448 0.00157,0.01031 0.00156,0.01436c0.00001,0.00297 -0.00014,0.00496 -0.00014,0.00496l-0.00025,0.00326l0.00328,0.00004c0.00002,0 0.00758,0.00009 0.015,0.00178c0.00713,0.00154 0.01271,0.00461 0.01323,0.00809c0.00002,0.00031 0.00003,0.00062 0.00002,0.00091l0,0.08258l-0.00001,0l0.00001,-0.00003z" id="svg_6"/>
  <path fill="#fff" d="m25.06473,23.43189c-0.01926,-0.04235 -0.04316,-0.08385 -0.07363,-0.11569c-0.13038,-0.13884 -0.31437,-0.09649 -0.40996,0.09513c-0.09542,0.19208 -0.06526,0.46056 0.06542,0.5998c0.11874,0.12574 0.27719,0.09559 0.3783,-0.05234l-2.77428,5.58921l-0.86249,4.57522l2.70798,-2.6187l6.16701,-12.42438l-1.84624,-1.95691l-0.59515,1.19914c-0.03405,-0.19948 -0.11007,-0.38676 -0.23328,-0.5186c-0.28586,-0.30291 -0.68551,-0.21128 -0.89265,0.20732c-1.18702,2.39309 -0.52899,3.03037 -1.63103,5.4208l0,0zm-1.35817,7.48069l-1.39297,1.34712l0.44356,-2.35547l0.9494,1.00835l0,0l0.00001,0zm1.64089,-7.60247c0.85456,-1.84518 0.77316,-2.34549 1.50452,-3.98327c0.12098,0.12133 0.25987,0.16414 0.39622,0.15363l-1.90074,3.82964l0,0z" id="svg_7" stroke="#ffffff"/>
 </g>

</svg>